# xmcd
# Track frame offsets:
# 150
# 12233
# 22765
# 35325
# 45795
# 59110
# 71848
# 85573
# 99040
# 110740
# 128793
# 140785
#
# Disc length: 1991 seconds
# Revision: 1
# Processed by: cddbd v1.5.2PL0 Copyright (c) Steve Scherf et al.
# Submitted via: VisiTrax 2.11.3.279 - For more info visit www.synapsa.com
#
DISCID=9607c50c
DTITLE=Slim Dusty - A Time To Remember
DYEAR=1997
DGENRE=Australian Country
TTITLE0=Don't Get Around Much Anymore
TTITLE1=Have You Ever Been Lonely
TTITLE2=Time Goes By
TTITLE3=Ain't Misbehavin'
TTITLE4=Try A Little Tenderness
TTITLE5=What A Wonderful World
TTITLE6=Into Each Life Some Rain Must Fall
TTITLE7=Red Sails In The Sunset
TTITLE8=Up The Lazy River
TTITLE9=Mood Indigo
TTITLE10=To Each His Own
TTITLE11=When I Grow Too Old To Dream
EXTD=1997 EMI Music Australia
EXTT0=
EXTT1=
EXTT2=
EXTT3=
EXTT4=
EXTT5=
EXTT6=
EXTT7=
EXTT8=
EXTT9=
EXTT10=
EXTT11=
PLAYORDER=
